<?xml version="1.0" encoding="UTF-8"?>
<svg width="474px" height="330px" viewBox="0 0 474 330" version="1.1" xmlns="http://www.w3.org/2000/svg" xmlns:xlink="http://www.w3.org/1999/xlink">
    <!-- Generator: Sketch 47.1 (45422) - http://www.bohemiancoding.com/sketch -->
    <title>Untitled 2</title>
    <desc>Created with Sketch.</desc>
    <defs></defs>
    <g id="Page-1" stroke="none" stroke-width="1" fill="none" fill-rule="evenodd">
        <g id="Ikhala---logo">
            <path d="M282.7,37.8 C283.7,49.1 275.4,57.2 275.4,57.2 C264.4,64.7 257.5,50.7 257.5,50.7 C253.5,41.1 242.8,46.6 238.3,48.4 C166.3,77.4 158.4,64.2 150.7,43.7 C148.8,38.7 146,39.5 146,39.5 C123.3,42.4 102.1,72.9 102.1,72.9 C93.8,87.1 98,102.7 98,102.7 C92,91.7 91.3,82.4 91.3,82.4 C87.3,93.4 88.8,97.5 88.8,97.5 C94,103.6 88.1,107.4 88.1,107.4 C89.7,103.6 86.6,102.6 86.6,102.6 C85.6,104.5 84.9,101.9 84.9,101.9 C83.4,104.8 85.3,107.4 85.3,107.4 C80.2,101.5 85.3,93.9 85.3,93.9 C89.3,82.7 88.5,67.8 88.5,67.8 C87.9,47.4 99,39.9 99,39.9 C102.8,36.5 111.3,28.6 111.3,28.6 C120.3,15.2 138.3,19.5 138.3,19.5 C157.4,22.6 169.1,19.8 169.1,19.8 C180.7,17.9 186.5,19.4 186.5,19.4 L199,23 C204.2,24.7 218,25.7 218,25.7 C236,27 245.5,20.1 245.5,20.1 C253.8,13.5 271.3,14 271.3,14 C278.4,13.3 281.6,7.5 281.6,7.5 C284.8,1.4 292.4,1.1 292.4,1.1 C294.7,1.5 296.6,1.1 296.6,1.1 C297.7,0.7 300,0.6 300,0.6 C303.7,0.4 306.1,3 306.1,3 C317.1,-4.5 319.9,6.2 319.9,6.2 C320.5,12.3 317.8,13.3 317.8,13.3 C320.7,12.3 322.5,14.3 322.5,14.3 C323.8,15.3 326.4,15 326.4,15 C327.5,13.8 334.4,9 334.4,9 C336.5,7.9 339.3,5.7 339.3,5.7 C338,8.9 337.4,11.5 337.4,11.5 C336.7,16.5 334.9,17.2 334.9,17.2 C335.5,18.4 335.6,20.4 335.6,20.4 C339,23.2 338.5,28.1 338.5,28.1 C339.7,32.5 345.2,38.9 345.2,38.9 C346.3,40.3 347.2,39.3 347.2,39.3 C352.6,37.5 356.5,31.7 356.5,31.7 C358.6,27.2 359.9,28.2 359.9,28.2 C362.6,29.7 361.2,38.3 361.2,38.3 C361,41.7 362,42.9 362,42.9 C363.1,44.1 362.6,45.1 362.6,45.1 L362.4,48 C363.3,47.9 364.6,47 364.6,47 C367.2,44.8 367.7,45.6 367.7,45.6 C368.7,46 369,45.6 369,45.6 C370.1,44.4 371.7,44.5 371.7,44.5 C371.7,44.5 382.6,40.2 386.6,25.8 C386.6,25.8 387.5,22.1 389.4,22.4 C389.4,22.4 396.9,23.3 382,50.2 C382,50.2 382.8,50.8 381.5,53 C381.5,53 382.2,55.7 380.6,57.2 C380.6,57.2 381.4,60.2 379.4,60.9 C379.4,60.9 379.5,63.3 376.8,63.3 C376.8,63.3 375.4,66 373.7,66.3 C373.7,66.3 373.7,68.4 373,69.4 C373,69.4 374.7,69.3 374.7,73.1 C374.7,73.1 375.8,73.5 375.4,74.9 C375.4,74.9 375,76.1 375.7,76.9 C375.7,76.9 376.6,78.1 375.4,80.6 C375.4,80.6 374.8,82.1 374.8,83.6 C374.8,83.6 375.2,85.9 371.2,86.4 C371.2,86.4 368.4,85.9 363.9,88.4 C363.9,88.4 361.7,90.1 359.4,89.5 C359.4,89.5 358.2,88.9 357.4,89.7 C357.4,89.7 351.6,92.2 347.7,88.5 C347.7,88.5 343.4,88.4 339.7,87.5 C309.8,80.6 282,30.5 282.7,37.8 Z" id="Shape" fill="#9B9A7A" fill-rule="nonzero"></path>
            <g id="Group" transform="translate(0.000000, 206.000000)" fill-rule="nonzero">
                <polygon id="Shape" fill="#9B9A7A" points="256.8 44.9 256.7 44.9 256.6 44.9 256.6 44.9 262.3 28.8 247.6 28.8 241.4 44.9 226.6 44.9 222.2 56.7 237 56.7 230.9 72.7 246.8 72.7 252.5 56.7 260.9 56.7 267.1 56.7 271.5 44.9"></polygon>
                <g id="Shape" fill="#054959">
                    <polygon points="16.5 0.9 16.5 72.7 0.7 72.7 0.7 0.9"></polygon>
                    <polygon points="66.2 0.9 66.2 30.7 94.3 0.9 114 0.9 85.9 29.3 116.7 72.8 96.9 72.8 75.3 40.5 66.2 49.7 66.2 72.8 50.4 72.8 50.4 1 66.2 1"></polygon>
                    <polygon points="159.3 0.9 159.3 28.5 188.4 28.5 188.4 0.9 204.2 0.9 204.2 72.7 188.4 72.7 188.4 41.7 159.3 41.7 159.3 72.7 143.5 72.7 143.5 0.9"></polygon>
                    <polygon points="343.7 0.9 343.7 59.5 378.7 59.5 378.7 72.8 327.9 72.8 327.9 1 343.7 1"></polygon>
                    <path d="M446.3,0.9 L473.2,72.7 L456.8,72.7 L451.4,56.7 L424.5,56.7 L418.9,72.7 L403,72.7 L430.2,0.9 L446.3,0.9 Z M447.2,44.9 L438.1,18.5 L438,18.5 L428.6,44.9 L447.2,44.9 Z"></path>
                    <polygon points="274.3 0.9 260 0.9 284.8 72.7 301.2 72.7"></polygon>
                </g>
                <g transform="translate(95.000000, 109.000000)" id="Shape" fill="#054959">
                    <path d="M9.8,0.1 L12.1,0.1 L7.3,13.8 L4.9,13.8 L0.1,0.1 L2.4,0.1 L5.3,8.6 C5.4,9 5.6,9.5 5.8,10.2 C6,10.8 6.1,11.3 6.1,11.6 C6.2,11.1 6.3,10.6 6.5,10 C6.7,9.4 6.8,8.9 6.9,8.6 L9.8,0.1 Z"></path>
                    <polygon points="28.2 13.8 20.5 13.8 20.5 0.1 28.2 0.1 28.2 2 22.7 2 22.7 5.7 27.9 5.7 27.9 7.6 22.7 7.6 22.7 11.9 28.2 11.9"></polygon>
                    <polygon points="42.4 13.8 40.2 13.8 40.2 2 36.2 2 36.2 0.1 46.5 0.1 46.5 2 42.5 2 42.5 13.8"></polygon>
                    <polygon points="62.7 13.8 55 13.8 55 0.1 62.7 0.1 62.7 2 57.2 2 57.2 5.7 62.4 5.7 62.4 7.6 57.2 7.6 57.2 11.9 62.7 11.9"></polygon>
                    <path d="M74.4,8.3 L74.4,13.8 L72.2,13.8 L72.2,0.1 L76.1,0.1 C77.9,0.1 79.2,0.4 80,1.1 C80.8,1.8 81.3,2.8 81.3,4.1 C81.3,5.8 80.4,7 78.6,7.7 L82.5,13.8 L80,13.8 L76.7,8.3 L74.4,8.3 L74.4,8.3 Z M74.4,6.5 L76,6.5 C77,6.5 77.8,6.3 78.3,5.9 C78.8,5.5 79,4.9 79,4.2 C79,3.4 78.7,2.9 78.2,2.5 C77.7,2.2 76.9,2 75.9,2 L74.4,2 L74.4,6.5 Z"></path>
                    <polygon points="91 13.8 91 0.1 93.2 0.1 93.2 13.8"></polygon>
                    <path d="M114.7,13.8 L112,13.8 L105.3,2.9 L105.2,2.9 L105.2,3.5 C105.3,4.7 105.3,5.7 105.3,6.7 L105.3,13.8 L103.3,13.8 L103.3,0.1 L106,0.1 L112.7,10.9 L112.8,10.9 C112.8,10.8 112.8,10.2 112.7,9.3 C112.7,8.4 112.6,7.7 112.6,7.2 L112.6,5.68434189e-14 L114.6,5.68434189e-14 L114.6,13.8 L114.7,13.8 Z"></path>
                    <path d="M133.4,13.8 L132,10 L126.8,10 L125.5,13.8 L123.1,13.8 L128.2,0.1 L130.6,0.1 L135.7,13.8 L133.4,13.8 Z M131.4,8.1 L130.1,4.4 C130,4.2 129.9,3.8 129.7,3.2 C129.5,2.7 129.4,2.3 129.4,2 C129.2,2.8 129,3.6 128.7,4.5 L127.5,8.1 L131.4,8.1 L131.4,8.1 Z"></path>
                    <path d="M146.3,8.3 L146.3,13.8 L144.1,13.8 L144.1,0.1 L148,0.1 C149.8,0.1 151.1,0.4 151.9,1.1 C152.7,1.8 153.2,2.8 153.2,4.1 C153.2,5.8 152.3,7 150.5,7.7 L154.4,13.8 L151.9,13.8 L148.6,8.3 L146.3,8.3 L146.3,8.3 Z M146.3,6.5 L147.9,6.5 C148.9,6.5 149.7,6.3 150.2,5.9 C150.7,5.5 150.9,4.9 150.9,4.2 C150.9,3.4 150.6,2.9 150.1,2.5 C149.6,2.2 148.8,2 147.8,2 L146.3,2 L146.3,6.5 Z"></path>
                    <polygon points="166.7 6.4 169.9 0.2 172.3 0.2 167.7 8.6 167.7 13.9 165.5 13.9 165.5 8.7 161 0.2 163.4 0.2"></polygon>
                    <path d="M198,1.9 C196.7,1.9 195.7,2.4 195,3.3 C194.3,4.2 193.9,5.5 193.9,7.1 C193.9,8.8 194.3,10 195,10.9 C195.7,11.8 196.7,12.2 198.1,12.2 C198.7,12.2 199.2,12.1 199.8,12 C200.3,11.9 200.9,11.7 201.5,11.6 L201.5,13.5 C200.4,13.9 199.2,14.1 197.9,14.1 C195.9,14.1 194.4,13.5 193.3,12.3 C192.2,11.1 191.7,9.4 191.7,7.1 C191.7,5.7 192,4.4 192.5,3.4 C193,2.3 193.8,1.5 194.8,0.9 C195.8,0.3 196.9,5.68434189e-14 198.3,5.68434189e-14 C199.7,5.68434189e-14 201,0.3 202.2,0.9 L201.4,2.8 C200.9,2.6 200.4,2.4 199.9,2.2 C199.1,1.9 198.6,1.9 198,1.9 Z"></path>
                    <polygon points="210.8 13.8 210.8 0.1 213 0.1 213 11.9 218.8 11.9 218.8 13.8"></polygon>
                    <polygon points="227.7 13.8 227.7 0.1 229.9 0.1 229.9 13.8"></polygon>
                    <path d="M251.5,13.8 L248.8,13.8 L242.1,2.9 L242,2.9 L242,3.5 C242.1,4.7 242.1,5.7 242.1,6.7 L242.1,13.8 L240.1,13.8 L240.1,0.1 L242.8,0.1 L249.5,10.9 L249.6,10.9 C249.6,10.8 249.6,10.2 249.5,9.3 C249.5,8.4 249.4,7.7 249.4,7.2 L249.4,5.68434189e-14 L251.4,5.68434189e-14 L251.4,13.8 L251.5,13.8 Z"></path>
                    <polygon points="261.6 13.8 261.6 0.1 263.8 0.1 263.8 13.8"></polygon>
                    <path d="M279.8,1.9 C278.5,1.9 277.5,2.4 276.8,3.3 C276.1,4.2 275.7,5.5 275.7,7.1 C275.7,8.8 276.1,10 276.8,10.9 C277.5,11.8 278.5,12.2 279.9,12.2 C280.5,12.2 281,12.1 281.6,12 C282.1,11.9 282.7,11.7 283.3,11.6 L283.3,13.5 C282.2,13.9 281,14.1 279.7,14.1 C277.7,14.1 276.2,13.5 275.1,12.3 C274,11.1 273.5,9.4 273.5,7.1 C273.5,5.7 273.8,4.4 274.3,3.4 C274.8,2.3 275.6,1.5 276.6,0.9 C277.6,0.3 278.7,5.68434189e-14 280.1,5.68434189e-14 C281.5,5.68434189e-14 282.8,0.3 284,0.9 L283.2,2.8 C282.7,2.6 282.2,2.4 281.7,2.2 C280.9,1.9 280.4,1.9 279.8,1.9 Z"></path>
                </g>
            </g>
            <path d="M276.4,138.1 C277.3,135.5 280.4,132.2 282.4,128.2 C284.4,124.2 284,119.3 283.8,115.3 C283.6,111.3 284.2,107.6 286.3,105.7 L286.4,105.8 C286.6,105.4 286.9,105.1 287.2,104.8 C288.4,103.4 289.7,102.3 290.6,102.1 C291.4,101.8 292.5,102.4 294,102.4 C295.5,102.5 295.4,101.9 297.9,102.1 C300.4,102.3 303.8,103.7 305.7,103.4 C307.6,103.2 307.8,104 309.8,104 C311.8,104 313.8,104 316,103.8 C318.1,103.6 322,105 323.9,104.9 C325.8,104.8 327.5,104.1 329.3,104 C331,103.9 334.4,104.6 334.4,104.6 C334.4,104.6 334.4,104.6 334.9,104.8 C335.4,105 335.5,105 336.6,104.4 C337.7,103.8 338.2,103 338.2,103 C338.2,103 337.7,102.5 337.2,101.8 C336.7,101.1 336,99.8 335.8,99 C335.5,98.2 335.8,97.4 336.5,96.8 C337.2,96.2 337.8,96 339,96.3 C340.2,96.6 340.7,97.5 340.7,97.5 C340.7,97.5 341.4,97 342.3,96.5 C342.2,96.5 342.2,96.5 342.1,96.4 C342.7,96.4 342.8,96 342.8,96 C342.8,96 341.3,96 340.9,95.1 C343.6,96.4 344.6,93.6 346.8,94 C346.8,93.8 346.4,93.6 346.1,93.5 C346.6,93.3 347.6,93.4 348.3,93.9 C348.3,93.9 348.2,93.5 348.3,93.3 C348.5,93.7 349.6,93.9 349.8,94.3 C350.9,94.7 351.6,96.2 352.2,96.7 C352.8,97.2 353.4,97.8 353.4,97.8 C353.4,97.8 354.4,97.2 355.1,97 C355.9,96.8 357.2,95.9 358,95.9 C358.9,95.8 360.3,96.7 361,97.2 C361.8,97.6 361.6,98.1 361.4,98.6 C361.1,99.2 360.7,99.9 360,100.7 C359.3,101.5 357.5,103 356.4,103.5 C355.3,104 354.9,104.1 354.9,104.1 C354.9,104.1 354.7,104.8 354.7,105.8 C354.6,106.7 355.2,108.9 355.9,110.1 C356.5,111.2 357,111.8 357.2,112 C357.4,112.2 357.8,112.6 357.7,112.8 C357.6,113 357.8,113.6 357.8,114.7 C357.8,115.8 357.4,116.2 356.7,116.3 C356,116.3 356,116.5 355.6,116.7 C355.2,116.9 354.5,117.3 354.2,117.3 C353.9,117.3 353.9,117.1 353.6,117.1 C353.3,117 352.8,117.2 352.4,117.1 C352,117 351.7,116.6 351.3,116.6 C350.8,116.5 349.9,116.8 349.4,116.8 C348.9,116.9 348.6,117.3 348.2,117.6 C347.8,117.9 347.7,118.2 347.7,118.2 C347.7,118.2 347,119.9 346.3,120.9 C345.7,121.8 345.2,123.2 345.2,124.7 C345.1,126.2 345.7,129.2 345.4,130.3 C345.1,131.4 342.8,134 342,134.7 C341.2,135.4 340.7,136.6 340.7,136.6 C340.7,136.6 340.8,139 340.4,140.1 C340.1,141.3 339.5,143.5 339.2,145 C338.9,146.5 338.8,149.1 338.5,150.8 C338.2,152.5 338.2,154.4 337.9,155.3 C337.6,156.1 337.7,156.7 337.6,157.9 C337.6,159.1 337.9,160 338.4,161 C338.8,162 338.8,163.7 338.7,164.5 C338.7,165.3 339,166 339.5,166.8 C340,167.6 339.9,167.8 340.1,168.2 C340.3,168.6 341,169.4 341.4,169.8 C341.8,170.2 342.3,170.3 342.3,170.4 C342.3,170.6 342.1,170.8 342.1,170.8 C342.1,170.8 342.2,171.1 341.5,171.2 C340.8,171.3 338.1,171.5 337.5,171.3 C336.9,171.1 336.8,170.6 336.2,170.2 C335.6,169.7 335.6,169.4 335.6,168.7 C335.6,168 335.5,167.1 335.3,166.7 C335,166.3 334.8,166.5 334.6,166.4 C334.3,166.3 334.3,165.5 334.4,165.2 C334.5,164.9 334.4,163.4 334.4,162.6 C334.5,161.7 334.5,160.7 334.6,158.8 C334.6,156.9 334.5,155.2 334.4,154.3 C334.4,153.5 333.9,152.3 333.7,151.2 C333.4,150.1 333.4,149.2 333.2,148.1 C332.9,147 333,145.4 333,144.3 C333.1,143.1 333.1,141.9 333,141.5 C332.9,141.2 332.2,141.1 331.6,140.9 C331,140.7 330.1,140.7 330.1,140.7 C330.1,140.7 329.9,141.3 329.6,141.8 C329.4,142.3 329.3,144.1 329.2,145.3 C329.1,146.5 329.4,148.5 329.7,149.7 C330.1,150.9 329.7,153.1 329.2,154.6 C328.7,156.1 327.9,157.7 327.5,158.5 C327.1,159.3 327,161.7 327.1,162.9 C327.3,164.1 327.7,165.7 327.6,166.6 C327.5,167.6 327.7,169.1 327.9,169.7 C328.1,170.3 328.3,171.2 328.5,171.7 C328.7,172.1 329.5,173.6 329.8,174 C330.1,174.4 329.8,174.7 329.4,174.8 C329,174.8 328.4,174.8 328.4,174.8 C328.4,174.8 327.9,175 326.9,175 C325.9,175 324.8,174.8 324.2,174.5 C323.6,174.2 323.2,172.5 323.1,172.3 C322.9,172 323.3,171.4 323.4,171.1 C323.6,170.8 323.5,170.1 323.4,169.6 C323.4,169.1 323,169.2 322.8,169 C322.5,168.8 322.9,167.8 322.9,167.4 C322.9,167 322.9,166.2 323.2,165.2 C323.5,164.3 323.7,162.7 324,161.3 C324.3,159.9 324.3,158.7 324.4,157.8 C324.5,156.9 324.1,156.1 323.9,155.8 C323.7,155.5 324,154.8 323.9,154.3 C323.8,153.8 323.7,152.7 323.7,151.7 C323.7,150.7 323.9,150.2 323.8,149.4 C323.7,148.5 323.4,147.2 323.2,144.9 C323.1,142.6 322.6,140.3 322.1,139.6 C321.6,138.9 319.8,139.3 317.7,139.7 C315.5,140 310.6,139.9 308.5,139.5 C306.4,139.1 304.3,137.4 304.3,137.4 C304.3,137.4 303.7,139.8 303.5,141 C303.2,142.2 302.7,143.4 302.1,144.9 C301.5,146.3 301.4,147.9 301.3,149.6 C301.2,151.3 301.2,152.8 301.2,154.5 C301.3,156.3 301.9,158.6 302.2,159.3 C302.5,160 303,162.5 303.1,163.2 C303.2,163.9 304.1,165.4 304.7,166.3 C305.2,167.2 306.3,168.2 306.7,168.6 C307.2,169 307.7,169.4 307.5,169.6 C307.3,169.8 306.6,170 306.6,170 C306.6,170 306.2,170.2 305.2,170.3 C304.1,170.4 302.7,170.3 302.2,170.2 C301.7,170.1 301.3,169.4 301,169.1 C300.6,168.8 300.8,168.1 300.8,167.4 C300.8,166.6 300.1,165.6 299.8,165.5 C299.5,165.4 299.3,165.8 299,165.7 C298.7,165.6 298.8,164.8 298.7,163.4 C298.6,162 298.2,160.4 297.9,158.8 C297.6,157.2 297.1,155.1 296.8,154.3 C296.5,153.5 296.2,151.7 296,150.7 C295.8,149.7 295.4,148.2 295.3,147.1 C295.2,146 294.8,145 294.6,144.3 C294.4,143.6 294.1,143.2 294.7,142.3 C295.3,141.5 296,138.7 296.3,137.6 C296.6,136.5 296.7,135.2 296.6,134.2 C296.5,133.2 296.3,132.1 295.9,132.2 C295.5,132.3 294,135.4 293.6,136 C293.2,136.6 293.2,137.3 293.1,138.3 C293.1,139.3 292.6,141.4 292.3,142.6 C292,143.8 291.6,144.5 291.7,144.9 C291.8,145.4 291.6,146.6 291.3,147.4 C291,148.2 290.9,149.3 290.7,150.3 C290.5,151.2 289.9,152.3 289.7,153.4 C289.5,154.5 289.4,156.6 289.5,158.3 C289.6,160 290.1,161 290.4,161.5 C290.7,161.9 290.6,163.7 290.7,164.9 C290.8,166.1 291.2,167 291.5,167.5 C291.8,168.1 291.6,168.6 292,169 C292.3,169.3 292.9,170.5 293.2,170.9 C293.5,171.3 293.4,171.5 292.7,171.5 C292,171.5 291.7,171.5 291.7,171.5 C291.7,171.5 291.7,171.7 291.3,171.8 C290.9,171.8 290.6,171.9 289.7,171.8 C288.8,171.7 288.8,171.7 288.3,171.6 C287.8,171.5 287.7,171.4 287.5,171.2 C287.3,171 286.7,170 286.8,169.7 C286.9,169.4 287.1,168.8 287.1,168 C287.1,167.2 286.8,166.4 286.6,166.3 C286.4,166.1 286.3,166.4 286,166.2 C285.7,166 286.1,164.9 286.1,164.6 C286.1,164.3 286.3,163.6 286.3,162.6 C286.4,161.6 286.6,160.6 286.5,158.1 C286.3,155.7 286.2,153.3 285.8,151.7 C285.4,150.1 285.8,148.8 285.8,147.8 C285.8,146.8 285.3,145.4 285,144.4 C284.8,143.4 284.7,143 285.4,142.1 C286.1,141.1 286.6,138.5 286.9,136.8 C287.1,135.1 286.4,132.5 286.1,131 C285.9,129.6 286.5,126.3 286.6,124.9 C286.7,123.4 286.4,120.6 286.4,118.6 C286.4,117.7 286.3,116.6 286.1,115.4 C286,117.5 286.2,120.4 285.9,123.9 C285.5,128.3 283.5,130.5 282.6,131.9 C281.8,133.4 282.4,133.8 282.6,136.5 C282.9,139.2 279.3,140.2 280.1,143.5 C279.2,142.5 279.7,139.8 279.7,139.8 C279.7,139.8 278.2,147.3 279.6,148.6 C278.3,148.4 277.5,146.2 277.5,146.2 C277.5,146.2 277.5,147.3 278.2,148.2 C277,147.5 276.8,146.3 276.5,144.5 C275.7,142.1 275.5,140.6 276.4,138.1 Z" id="Shape" fill="#415A53" fill-rule="nonzero"></path>
            <path d="M212.8,186.9 C212.9,186.8 211.9,186.9 212.8,186.9 C213.3,186.2 215.2,187.1 215.9,186.1 C216.5,185.2 216.7,182.2 216.4,181.2 C216.2,180.5 214.2,176.9 215.6,176.5 C216.9,176.1 217.2,174.2 217.1,173.1 C216.3,166.6 220.2,159.9 221.8,153.9 C223.8,146.2 225.9,138.8 229.3,131.5 C229.8,131.9 231.6,131.6 232.4,131.5 C234.4,131.3 236,132.7 237.7,133.5 C238.9,134.1 239.8,134 239.9,135.3 C240,136.9 239.7,138.5 239.8,140.1 C239.9,143.2 238.1,147.4 237.1,150.2 C236.2,152.8 237.5,154.9 237.4,157.5 C237.3,159.9 236.6,164.6 238.6,166.4 C242.4,170 245.1,162.5 244.4,159.5 C243.8,157.1 241.3,157.8 241.1,155.3 C240.9,153 241,149.7 241.8,147.4 C243.1,143.7 243.2,139.9 244.9,136.3 C246.9,132.3 245.7,130.3 242.7,127.6 C245.1,126.2 247.4,124.8 249.7,123.2 C250.7,124.7 252.4,127.6 252.5,129.4 C252.7,133.4 256,136.7 256.9,140.6 C257.5,143.1 257.2,145.6 258,148.2 C258.6,150.3 258.6,156.7 257.4,158.7 C256.3,160.5 256.7,163.4 256.1,165.4 C255.3,168.3 253.7,170.4 252.5,173.1 C251.3,175.8 258.4,175.9 259.7,174.7 C261,173.6 259.2,169.2 259,167.9 C261.6,168.4 261.1,153.1 261.8,151.1 C262.4,152 262.8,153 263.7,153.8 C263.9,152.6 264.3,154.6 264,153.1 C264,153.1 264,153.1 264,153.1 C264.6,154.2 264.6,153 264.6,152.7 C265.8,153.7 267.1,154.1 268.7,154.1 C268.8,153.4 267.6,149.7 267.7,149.6 C268,149.2 266.1,143.5 265.8,142.7 C264.5,138.5 264.9,133.8 263.2,130.1 C262.6,128.8 261.5,122 262.9,120.8 C263.9,120 263.5,115.3 263.8,113.9 C264.4,110.9 264,106.7 263.5,103.7 C262.9,100.2 262.1,96 259.6,93.3 C256.3,89.8 249.4,88 244.7,88.1 C241.3,88.2 237.9,88.9 234.9,90.5 C234,91 233.2,91.6 232.4,92.3 C230.6,93 230.4,91.7 228.9,90.9 C229.1,89.7 226.4,83.3 225.9,83.7 C226.4,82.3 222.4,74 222.6,73.8 C221.6,69.4 219.1,64.9 216.9,60.5 C215.6,58.1 212.7,58.2 212.8,55 C212.8,53.8 210.9,47.6 210,47.6 C209,49.7 209,52.7 209.1,54.9 C207.4,54.8 206.6,54.2 206.1,56 C205.3,55.2 204.7,55.5 203.9,54.6 C203.3,53.9 202.6,53.2 201.9,52.5 C200.8,51.4 200,50.6 199.2,49.3 C198.1,50.4 199.4,54.5 200,55.8 C200.7,57.4 201.7,57.7 199.7,58.8 C199.1,59.1 198.1,60.6 197.8,61.3 C197.4,62.2 197.2,63.3 196.5,64.1 C196.9,64.6 197.5,64.6 197.2,65.1 C196.1,67.7 194.3,69.8 192.6,72.1 C190.7,74.5 189.2,78.3 191.3,81.3 C192.7,83.3 195.3,83.8 197.6,83.5 C198.7,83.3 199.2,81.6 199.6,80.8 C200.8,80.4 202.2,79.8 203.5,80.2 C202.8,80.8 202.8,81.1 203.7,81 C203.3,81.1 203,81.2 202.8,81.5 C203,81.3 203.3,81.3 203.6,81.4 C203.3,81.4 203,81.6 202.8,81.8 C202.9,81.6 204,81.6 204.1,81.6 C204.8,81.6 206.4,98.5 205.5,100.3 C204.1,103.4 202.3,106.5 202.3,110.1 C202.3,113 201.9,117.9 203.3,120.5 C204.5,122.8 207,125.5 206.7,128.2 C204.6,131.6 204.6,136.3 202.7,140 C201.8,141.7 200.1,144.4 201,146.4 C202,148.7 203.2,151.9 202.9,154.5 C202.6,157 203.7,159.5 203.1,162.1 C202.9,163.1 202.8,163.9 202.8,164.9 C202.8,166.3 204.5,167.5 204.4,168.8 C204.1,171.2 205.5,172 207.2,173.2 C208.5,174.1 210.8,173.4 211.6,174 C212.4,176.3 209.8,179.8 209.2,181.8 C208.8,183 205.8,186 207.8,186.5 C209.1,187 211.1,186.9 212.8,186.9 Z M207.7,164.9 C207.7,162 206.4,159.5 206.4,156.6 C206.4,153.2 206.5,150.2 207,146.9 C207.8,141.6 215.2,139.5 217.8,134.8 C217.8,139.5 217.7,145.9 215.8,150.2 C214.4,153.2 216.1,156.7 215,159.5 C215.5,162 213.6,166.6 212.9,169 C211.8,166.2 210.7,164.5 207.7,164.9 C207.7,164.4 208.2,164.8 207.7,164.9 Z" id="Shape" fill="#415A53"></path>
            <path d="M146.4,119.9 C144.1,120 141.4,118.6 139.8,118 C138.2,117.4 136.2,116.6 135.2,116 C134.1,115.4 132.4,114.3 131.9,112.9 C131.3,111.4 129.4,107.2 128.5,105.7 C127.6,104.2 126.2,102.4 125.9,101.7 C125.6,101 124.7,99.3 122.7,98.6 C120.7,97.9 118.2,98.3 117.2,98.5 C116.3,98.7 115.7,98.6 114.4,99.1 C113.1,99.6 110.5,101.4 110.2,102.2 C109.9,103 110.2,104.4 108.1,105.4 C106,106.4 104.4,107.4 103.3,108.1 C102.2,108.8 102.6,109.9 103.1,111.1 C103.6,112.3 103.9,113.8 104.4,114.3 C104.9,114.8 105.7,115.1 106.2,115.1 C106.6,115.1 107.1,115 107.9,115.2 C108.7,115.4 110.2,115.1 111.6,114.9 C112.9,114.7 114.1,114.3 114.8,114.6 C115.5,114.9 117.3,117 118,118.5 C118.7,120 118.9,121.2 119.5,122.7 C120.1,124.2 120.8,125.1 120.7,125.6 C120.6,126.1 120.5,130 120.7,131.2 C120.9,132.4 121,133.3 121.1,134.9 C121.2,136.5 122.2,139.6 123.2,141.3 C124.2,143 125.5,145.8 125.5,148.3 C125.5,150.8 126.5,155.4 126.6,157.3 C126.7,159.1 126.5,163.5 126.5,165.2 C126.6,166.9 126.6,167.8 126.2,169.3 C125.7,170.8 125.4,172.2 124.6,172.6 C123.8,172.9 122.9,172.9 122.4,173 C121.9,173.1 120.1,174.7 119.7,175 C119.4,175.3 119.4,175.6 119.6,175.7 C119.8,175.8 119.9,175.8 119.9,175.8 C119.9,175.8 120.1,176.3 120.6,176.4 C121.1,176.5 121.9,176.3 121.9,176.3 C121.9,176.3 123.4,176.8 124.5,176.8 C125.6,176.8 126.1,176.5 126.6,176.5 C127.1,176.6 127.9,176.6 128.1,175.6 C128.3,174.6 128.1,174.1 128.4,173.5 C128.7,172.9 128.9,172.1 128.9,171.5 C128.9,170.9 129.3,170.5 129.4,170 C129.5,169.5 129.6,168.8 130,168.6 C130.4,168.5 130.9,168.5 131.1,167.9 C131.3,167.3 130.8,167 130.7,166.3 C130.6,165.6 130.4,164 130.6,162.7 C130.8,161.5 131.2,157.7 131.4,156 C131.6,154.3 131.5,151.1 131.5,150.3 C131.5,149.5 131.7,147.5 132,147.5 C132.3,147.4 133,148.6 133,150.4 C133,152.2 133.7,155.3 133.8,156.9 C133.9,158.5 133.9,163 133.7,164.5 C133.5,166 133.6,167.1 133.7,167.8 C133.8,168.5 132.9,171.7 132.4,172.8 C131.9,174 129.9,176.3 129.5,177.2 C129.1,178.1 129.1,178.9 129.7,179.2 C130.3,179.4 130.8,179.3 131,179.4 C131.2,179.5 131.7,179.6 132.5,179.4 C133.3,179.2 134.3,179.2 135,179.2 C135.7,179.2 136.2,179.1 136.2,178.2 C136.3,177.3 136.6,176.6 136.7,176 C136.8,175.4 136.5,172.8 136.8,172.4 C137,172 137.3,171.8 137.3,171.1 C137.4,170.4 137.9,169.8 138.2,169.5 C138.5,169.2 138.2,168.1 138.4,167.8 C138.6,167.5 138.5,167.3 138.3,166.3 C138.1,165.4 138.2,164.5 138.4,163.5 C138.6,162.5 138.3,161.4 138.6,160.6 C138.9,159.8 139.1,158.7 139,157.9 C138.9,157.1 139.1,156.5 139,154.8 C139,153.1 139.1,151.1 139.5,149.3 C139.9,147.5 140.3,146.4 140.5,146.3 C140.7,146.2 142.7,145.9 146.5,144.4 C150.2,142.9 156.1,140.5 158.1,140.2 C160.1,139.8 162.2,139.3 162.5,139.5 C162.9,139.7 163.5,140.8 163.4,141.9 C163.3,143 164.2,145.7 165.2,147.1 C166.2,148.5 168.8,151.5 170.5,153.3 C172.2,155.1 174.4,157.5 175.1,160.5 C175.8,163.5 175.9,164.1 175.5,165.9 C175.1,167.7 174.9,169.2 174.5,169.5 C174.1,169.8 172.7,169.6 172,170.1 C171.3,170.6 170.1,171.7 170.1,172.3 C170.2,172.8 171,173.7 171.7,173.8 C172.4,173.9 172.9,173.7 173.1,173.8 C173.4,173.9 174.3,174.1 175.3,173.9 C176.3,173.6 177.2,173.4 177.6,172.5 C177.9,171.6 177.7,170.9 177.9,170.3 C178.1,169.7 178.4,168.5 178.4,167.7 C178.4,166.9 179,165.1 179.1,164.4 C179.2,163.7 179.3,161.8 179.8,161 C180.2,160.1 181.1,158.2 180.9,157.6 C180.7,156.9 179.1,155.5 178.4,154.6 C177.6,153.7 175.8,151.2 175.3,150 C174.8,148.8 174.3,146.3 174.5,146.2 C174.7,146.1 175,147.3 176.3,149 C177.6,150.7 181.3,154.3 182.3,155.3 C183.3,156.4 185.1,158 186.4,160 C187.6,162 189.9,166.3 190.5,168.6 C191.1,170.9 191.4,171.9 190.9,172.2 C190.4,172.4 189.3,173.1 189,173.5 C188.7,173.9 188.1,174.8 187.7,175.2 C187.3,175.6 187.6,175.9 187.8,176 C188,176.1 188,176.7 188.6,177 C189.2,177.2 190.6,177.1 191,177.2 C191.3,177.3 192.5,177.5 193.2,177.4 C193.9,177.3 194,176.1 194.3,176 C194.6,175.8 195.6,175.4 195.3,174.5 C195,173.7 194.4,172.3 194,170.7 C193.7,169.1 193,165.9 192.6,163.6 C192.2,161.3 192.5,159 192.1,158.3 C191.7,157.6 190.8,157.6 189.5,155.8 C188.2,154 187.1,152.8 186.8,152.1 C186.4,151.4 186.4,151 186.5,151 C186.6,150.9 187.5,151.7 190.3,151.8 C193.1,151.9 194.7,151.4 194.7,151.3 C194.7,151.2 193.4,150.2 191.8,149.9 C190.2,149.6 188.8,149.7 187.3,148.2 C185.8,146.8 185.2,145.9 184.8,144.1 C184.4,142.3 184,138 184.4,135.3 C184.7,132.6 183.7,126.5 181,124.4 C178.3,122.3 174.9,118.8 168,118.5 C161.2,118.2 156.1,119.3 153.2,119.5 C149.8,119.7 148.7,119.8 146.4,119.9 Z" id="Shape" fill="#415A53" fill-rule="nonzero"></path>
        </g>
    </g>
</svg>